<?xml version="1.0" standalone="no"?>
<!DOCTYPE svg PUBLIC "-//W3C//DTD SVG 20010904//EN"
 "http://www.w3.org/TR/2001/REC-SVG-20010904/DTD/svg10.dtd">
<svg version="1.0" xmlns="http://www.w3.org/2000/svg"
 width="992.000000pt" height="992.000000pt" viewBox="0 0 992.000000 992.000000"
 preserveAspectRatio="xMidYMid meet">
<metadata>
Created by potrace 1.14, written by Peter Selinger 2001-2017
</metadata>
<g transform="translate(0.000000,992.000000) scale(0.100000,-0.100000)"
fill="#000000" stroke="none">
<path d="M0 9851 c0 -50 4 -72 15 -81 9 -7 24 -32 35 -54 22 -49 65 -92 101
-101 37 -9 117 28 129 61 14 35 12 105 -3 130 -7 12 -31 42 -53 68 l-42 46
-91 0 -91 0 0 -69z"/>
<path d="M499 9897 c15 -39 22 -189 13 -262 -9 -68 -31 -127 -72 -190 -40 -62
-63 -122 -68 -172 -6 -70 2 -96 44 -143 31 -34 42 -40 76 -40 61 0 101 47 122
142 28 121 36 141 85 191 56 58 114 87 176 87 57 0 83 -13 96 -48 17 -44 -6
-103 -62 -158 -27 -27 -49 -53 -49 -60 0 -6 -7 -17 -15 -24 -17 -14 -45 -72
-65 -134 -17 -52 -8 -125 21 -183 23 -44 34 -52 124 -98 55 -28 119 -63 141
-77 72 -46 106 -125 85 -191 -15 -46 -49 -67 -105 -67 -102 0 -201 -62 -225
-139 -21 -70 -15 -119 19 -153 28 -27 36 -30 79 -26 27 3 81 21 125 43 69 34
82 37 138 33 52 -4 65 -9 86 -33 21 -25 24 -36 20 -92 -4 -57 -8 -67 -42 -102
-21 -22 -50 -42 -65 -45 -109 -26 -148 -43 -188 -84 -41 -41 -43 -47 -43 -102
0 -45 5 -65 25 -94 14 -20 25 -40 25 -45 0 -13 43 -47 82 -65 36 -16 39 -16
83 4 25 12 50 31 56 43 5 12 27 54 47 92 37 67 40 70 78 73 31 2 45 -2 60 -19
17 -18 19 -39 22 -158 1 -101 6 -145 19 -171 16 -35 130 -150 148 -150 26 0
124 -119 160 -193 51 -107 63 -111 153 -53 62 41 201 111 284 144 39 16 46 73
18 158 -16 47 -21 81 -18 116 5 44 11 56 59 104 85 86 162 113 231 80 82 -39
77 -109 -16 -200 -35 -33 -66 -68 -70 -76 -4 -8 -13 -26 -21 -40 -21 -35 -19
-67 4 -75 11 -3 59 3 106 14 48 12 94 21 104 21 10 0 36 16 58 35 58 50 87 53
146 16 32 -21 60 -31 86 -31 45 0 151 20 151 29 0 3 -9 20 -20 36 -19 29 -26
87 -14 120 9 24 50 41 139 60 44 9 91 22 105 30 14 8 35 19 47 24 21 10 62 65
76 104 4 11 -2 37 -13 63 -48 104 -219 113 -355 17 -25 -18 -49 -43 -54 -55
-18 -45 -67 -81 -119 -86 -44 -4 -51 -2 -70 23 -16 20 -22 42 -22 75 0 80 56
213 112 267 56 54 91 63 253 63 118 0 154 4 194 19 121 46 240 186 241 284 0
30 -7 45 -29 68 -48 48 -108 35 -198 -45 -45 -39 -49 -41 -114 -41 -60 0 -71
3 -97 28 -39 37 -62 116 -62 211 0 91 17 135 67 173 28 21 45 26 92 26 32 0
78 -5 102 -10 24 -6 76 -16 114 -23 93 -15 124 -27 163 -64 28 -26 92 -141 92
-165 0 -4 15 -21 33 -38 62 -60 119 -53 163 22 33 58 35 115 5 155 -11 16 -21
32 -21 36 0 3 -23 41 -52 83 -48 71 -52 81 -56 146 -2 53 2 85 17 129 28 79
26 102 -8 137 -58 57 -138 33 -251 -75 -80 -77 -127 -101 -200 -101 -76 0
-109 20 -145 85 -25 45 -30 67 -30 122 0 57 4 71 23 90 21 21 34 23 157 28
132 5 134 5 165 35 17 17 44 57 60 90 42 87 80 120 138 120 26 -1 67 -10 92
-22 58 -27 104 -40 163 -47 91 -11 136 -70 122 -159 -4 -23 -22 -76 -40 -117
-46 -104 -48 -113 -34 -162 17 -63 71 -109 161 -136 109 -32 125 -34 171 -20
56 16 92 44 128 97 25 38 29 54 29 110 0 58 -5 77 -45 155 -24 49 -51 109 -59
135 -23 69 -30 177 -16 244 10 52 19 66 72 119 112 112 188 124 338 56 14 -7
59 -45 101 -86 99 -96 133 -116 229 -134 60 -11 159 -5 191 13 12 6 27 26 35
46 14 33 14 37 -14 86 -16 29 -38 57 -48 62 -10 6 -31 18 -46 28 -15 10 -68
27 -119 38 -81 17 -135 19 -438 19 l-346 0 -13 -52 c-9 -41 -22 -63 -55 -95
-60 -57 -112 -70 -170 -45 -36 16 -45 26 -56 61 -7 25 -9 60 -5 87 l6 45 -138
-3 -139 -3 -13 -28 c-13 -27 -51 -55 -122 -91 -76 -37 -132 -73 -172 -111 -63
-59 -98 -75 -163 -75 -49 0 -60 4 -86 29 -25 26 -29 37 -29 86 0 72 28 127 83
163 l42 27 -150 3 -150 2 -65 -60 c-36 -34 -85 -75 -110 -93 -44 -30 -48 -31
-152 -32 -98 0 -109 2 -130 22 -18 18 -23 37 -26 93 l-4 70 -128 0 -128 0 -5
-42 c-2 -24 -10 -73 -17 -109 -17 -91 -8 -128 43 -179 23 -23 51 -46 62 -51
11 -5 34 -18 50 -29 17 -11 39 -24 50 -29 33 -15 86 -83 120 -156 12 -26 19
-64 19 -107 1 -57 -2 -70 -23 -92 -20 -21 -34 -26 -72 -26 -46 0 -51 3 -109
63 -34 34 -68 73 -77 87 -22 36 -107 100 -161 120 -26 10 -87 23 -137 30 -49
6 -124 19 -165 28 -41 9 -110 17 -152 20 -66 3 -85 0 -124 -20 -26 -13 -61
-40 -78 -62 -17 -21 -49 -59 -72 -85 -58 -66 -76 -109 -63 -153 5 -20 16 -41
24 -48 8 -7 15 -18 15 -24 0 -6 12 -20 27 -31 15 -11 55 -44 89 -73 101 -86
134 -140 134 -222 0 -120 -138 -152 -233 -53 -15 17 -41 56 -58 89 -34 66 -94
133 -152 170 -21 14 -56 44 -78 67 -41 41 -41 42 -37 107 4 69 13 88 88 177
19 22 46 63 59 90 26 52 88 123 106 123 12 0 104 96 157 163 50 63 130 70 295
26 120 -32 157 -26 221 34 27 26 32 38 32 77 0 32 -7 58 -23 81 l-23 34 -307
3 -307 2 0 -38 c0 -97 -198 -196 -395 -197 -78 0 -96 3 -135 25 -24 14 -50 36
-57 50 -15 30 -17 114 -3 141 10 18 6 19 -119 19 l-131 0 9 -23z m2383 -294
c54 -51 72 -99 73 -188 0 -78 -15 -131 -50 -175 -33 -40 -37 -87 -16 -165 23
-84 27 -179 9 -222 -6 -15 -54 -71 -106 -124 -85 -87 -95 -101 -99 -141 -6
-54 21 -119 67 -163 42 -39 60 -76 60 -120 0 -50 -36 -85 -87 -84 -59 0 -96
19 -180 89 -126 106 -150 112 -368 96 -106 -8 -111 -7 -145 16 -42 28 -60 61
-60 108 0 29 8 44 40 75 l41 40 147 1 c153 1 146 -1 235 51 30 17 137 126 137
139 0 6 7 17 15 24 7 6 35 55 61 107 26 53 60 115 75 139 44 64 45 90 10 194
-46 137 -42 258 13 318 28 32 86 25 128 -15z m-1028 -449 c114 -37 168 -60
221 -94 17 -11 62 -36 100 -55 80 -40 105 -65 105 -105 0 -62 -88 -89 -300
-93 -142 -2 -160 6 -277 125 -89 90 -116 138 -107 188 16 78 91 88 258 34z
m-154 -741 c25 -9 54 -25 66 -35 11 -10 25 -18 30 -18 6 0 23 -13 39 -30 16
-16 32 -30 36 -30 5 0 25 -12 46 -26 21 -14 56 -34 79 -44 22 -11 47 -26 54
-35 7 -8 18 -15 25 -15 6 0 20 -9 30 -20 10 -11 22 -20 26 -20 5 0 25 -11 45
-25 45 -30 119 -33 214 -9 74 19 123 12 156 -21 20 -20 24 -34 24 -85 0 -57
-2 -62 -42 -100 -51 -50 -156 -100 -225 -107 -85 -9 -137 11 -204 81 -33 33
-59 65 -59 71 0 12 -75 85 -105 101 -11 6 -47 19 -80 28 -120 36 -308 99 -334
112 -14 8 -31 14 -37 14 -5 0 -23 13 -38 29 -55 57 -34 140 44 182 44 24 148
25 210 2z m100 -515 c27 -19 82 -102 116 -178 4 -8 28 -46 53 -85 65 -99 80
-134 81 -183 0 -54 -23 -104 -63 -138 -25 -21 -38 -25 -70 -21 -46 6 -66 23
-96 79 -32 61 -84 140 -114 175 -39 44 -88 145 -94 195 -9 60 5 105 43 143 43
43 93 47 144 13z"/>
<path d="M5653 9864 c-21 -31 -44 -66 -51 -77 -7 -12 -22 -35 -32 -52 -11 -16
-24 -39 -29 -51 -9 -20 -39 -48 -96 -88 -81 -56 -86 -165 -11 -244 34 -37 89
-67 179 -97 80 -27 109 -60 115 -130 4 -51 2 -59 -23 -85 -14 -15 -47 -34 -72
-40 -38 -11 -53 -11 -98 4 -65 20 -79 28 -170 87 -66 44 -89 66 -193 188 -43
51 -58 61 -142 101 -25 12 -56 26 -70 33 -38 18 -105 64 -120 82 -22 26 -122
99 -162 118 -41 19 -72 13 -108 -23 -52 -52 -3 -157 139 -292 57 -55 100 -85
173 -121 53 -27 102 -55 108 -63 7 -8 18 -14 25 -14 27 0 82 -76 163 -225 19
-35 68 -73 112 -86 40 -12 108 -72 136 -119 9 -14 33 -33 54 -44 33 -16 45
-17 84 -7 73 18 102 14 140 -20 44 -38 54 -92 36 -193 -15 -86 -22 -102 -77
-187 -23 -37 -45 -78 -49 -93 -3 -14 -10 -29 -15 -31 -4 -3 -29 20 -54 52 -39
50 -45 65 -45 104 0 94 -53 159 -130 159 -30 0 -45 9 -95 60 -58 59 -75 70
-75 50 0 -6 41 -70 91 -143 50 -73 116 -169 147 -215 120 -176 238 -335 255
-346 16 -9 24 -5 53 29 53 61 138 223 125 239 -6 7 -13 37 -17 68 -7 60 1 94
46 193 33 72 44 107 65 205 26 120 79 154 171 109 l48 -23 15 24 c112 164 106
276 -15 287 -45 5 -54 1 -119 -43 -51 -34 -82 -48 -116 -52 -41 -4 -49 -1 -77
28 -27 26 -32 39 -32 78 0 57 18 88 96 166 l59 59 89 -6 c96 -6 149 6 194 47
34 30 47 61 62 146 22 127 49 163 159 221 35 19 74 40 87 47 33 18 58 74 50
114 -3 18 -21 62 -39 98 l-32 65 -171 3 -171 2 -40 -43 c-23 -25 -48 -66 -57
-95 l-18 -52 32 -95 c41 -122 37 -141 -43 -223 -78 -79 -112 -97 -174 -88 -91
12 -153 78 -153 162 0 46 19 96 69 179 6 11 29 73 51 138 l39 117 -119 0 -118
0 -39 -56z"/>
<path d="M7058 9892 c5 -36 -34 -85 -92 -113 -83 -41 -96 -51 -112 -80 -23
-45 -3 -86 83 -171 66 -65 77 -73 112 -73 29 0 48 8 66 25 37 34 45 57 65 188
20 123 31 144 87 163 41 13 80 5 110 -23 37 -35 38 -74 3 -192 -31 -108 -31
-108 -14 -159 10 -29 26 -68 37 -87 11 -19 20 -52 21 -72 0 -31 -6 -45 -39
-78 -21 -22 -44 -40 -50 -40 -30 0 -105 -108 -105 -151 0 -19 -4 -20 -34 -15
-24 5 -39 2 -53 -11 -18 -16 -22 -38 -31 -173 -6 -85 -18 -186 -26 -225 -8
-38 -24 -119 -36 -180 -24 -123 -150 -652 -181 -760 -33 -112 -55 -191 -94
-330 -35 -123 -105 -338 -195 -600 -51 -147 -58 -200 -36 -243 24 -47 104
-170 326 -502 183 -275 247 -368 404 -590 33 -47 140 -202 237 -345 157 -230
250 -365 435 -628 165 -236 409 -613 753 -1164 146 -234 190 -321 222 -439 38
-140 11 -258 -82 -352 -55 -55 -118 -83 -259 -116 -293 -69 -327 -78 -675
-177 -67 -19 -116 -34 -320 -95 -78 -23 -377 -123 -750 -249 -60 -20 -123 -43
-140 -51 -40 -19 -340 -133 -390 -149 -23 -7 -86 -31 -141 -54 -55 -22 -165
-65 -244 -95 -80 -29 -206 -77 -280 -106 -74 -28 -180 -67 -235 -85 -55 -19
-145 -49 -200 -69 -148 -51 -239 -74 -345 -86 -141 -17 -160 -37 -123 -132 35
-92 130 -186 205 -203 14 -4 29 -14 32 -23 14 -40 45 -78 78 -97 35 -19 38
-19 72 -2 24 11 42 30 54 54 25 55 31 59 102 72 36 6 81 15 100 21 31 9 37 7
52 -12 41 -54 10 -207 -54 -266 -73 -67 -294 -162 -376 -162 -76 0 -206 81
-254 158 -25 40 -29 135 -9 209 15 55 -8 124 -58 178 -21 22 -44 51 -53 65
-16 27 -44 107 -53 152 -3 16 -12 28 -21 28 -9 0 -45 29 -81 65 -53 53 -68 63
-83 55 -24 -13 -52 -63 -73 -131 -22 -73 -49 -96 -130 -113 -71 -15 -120 -40
-179 -92 -65 -58 -136 -64 -181 -16 -51 56 -36 139 43 225 26 29 66 80 89 114
62 91 94 115 207 152 54 18 113 39 129 46 17 8 41 15 55 17 21 3 26 10 32 53
4 28 15 82 24 122 17 70 17 72 -5 108 -12 20 -29 74 -38 118 -8 45 -22 89 -29
98 -8 8 -14 20 -14 27 0 11 -114 72 -136 72 -16 0 -70 62 -79 91 -6 18 -1 27
21 43 47 34 170 149 216 201 l43 49 6 -65 c3 -41 14 -83 29 -110 13 -24 28
-54 34 -66 6 -13 14 -23 19 -23 4 0 7 -7 7 -15 0 -8 5 -15 10 -15 6 0 10 1 10
3 0 21 42 299 50 326 6 23 6 47 -1 71 -9 30 -6 45 20 109 17 41 31 83 31 95 0
23 55 223 94 340 13 39 36 114 51 166 14 52 37 131 50 175 32 113 60 212 96
345 17 63 35 126 39 140 12 33 85 306 118 440 16 65 34 116 48 133 23 28 64
146 64 184 0 11 -7 26 -15 33 -41 34 -76 92 -85 142 -17 88 -16 90 140 271 4
4 6 -20 6 -55 -1 -38 5 -75 14 -92 30 -59 32 -56 123 194 19 52 33 97 31 99
-3 3 -18 -5 -34 -17 -39 -29 -59 -29 -33 1 44 49 163 259 163 287 0 6 35 101
77 213 127 336 203 571 203 630 0 49 -26 99 -48 95 -9 -2 -56 -53 -105 -113
-87 -109 -207 -254 -408 -494 -57 -68 -131 -156 -164 -196 -33 -40 -94 -112
-135 -160 -170 -199 -180 -213 -180 -264 1 -25 7 -75 15 -111 23 -103 20 -522
-4 -703 -11 -78 -23 -167 -26 -197 -7 -52 -36 -202 -70 -353 -86 -383 -238
-679 -531 -1031 -222 -267 -405 -407 -629 -481 -102 -34 -124 -38 -299 -48
-366 -21 -637 10 -905 105 -102 36 -320 139 -446 211 -129 73 -170 103 -327
235 -15 13 -21 13 -43 -2 -14 -9 -25 -22 -25 -29 0 -19 -49 -61 -94 -81 -57
-26 -156 -19 -192 14 -42 40 -61 89 -75 194 -15 111 -47 183 -91 204 -35 17
-78 -2 -146 -63 -52 -47 -51 -42 -37 -218 l8 -87 -109 -111 c-60 -60 -122
-117 -137 -125 -34 -18 -77 -11 -102 16 -23 25 -17 107 12 170 11 25 31 78 44
119 20 61 33 83 83 135 74 77 86 105 79 181 -7 75 13 127 59 155 36 23 68 22
166 -1 49 -12 57 -11 90 6 21 12 38 29 39 40 2 11 -23 64 -55 119 -63 108 -51
100 -212 151 -100 32 -104 35 -130 92 -12 27 -49 72 -96 116 -87 83 -93 92
-133 218 -17 52 -51 135 -77 184 -41 81 -45 95 -40 140 5 46 12 55 93 138 104
105 141 131 223 154 99 27 106 37 114 184 4 68 15 164 25 212 12 57 16 100 11
120 -19 77 -45 127 -95 185 -25 30 -81 55 -176 81 -41 11 -101 30 -133 41 -68
24 -98 21 -138 -18 -23 -21 -28 -35 -28 -72 0 -67 42 -109 141 -139 92 -29
109 -43 109 -91 0 -65 -53 -89 -141 -65 -58 17 -220 45 -256 45 -22 0 -23 -3
-23 -86 l0 -85 44 -20 c73 -32 128 -38 209 -23 88 17 119 12 153 -29 37 -44
29 -96 -22 -148 -21 -22 -43 -39 -49 -39 -5 0 -32 -11 -58 -24 -87 -45 -145
-59 -213 -53 l-64 5 0 -165 0 -164 55 -50 c39 -37 66 -73 96 -135 37 -76 41
-90 37 -140 -3 -40 -10 -61 -23 -70 -25 -19 -99 -18 -135 1 l-30 16 0 -178 0
-177 33 31 c44 41 86 54 131 41 81 -25 103 -92 66 -204 -31 -94 -49 -135 -76
-164 -12 -14 -30 -41 -41 -60 -36 -67 -73 -120 -93 -132 -18 -12 -20 -24 -20
-131 0 -132 6 -138 47 -50 14 30 37 62 50 70 35 23 90 11 131 -30 27 -27 34
-43 39 -88 13 -133 -84 -292 -223 -364 l-39 -21 -3 -106 -3 -107 33 17 c18 9
62 18 98 20 59 4 67 2 89 -21 51 -56 32 -203 -36 -269 -32 -31 -38 -33 -109
-33 l-74 0 0 -107 c0 -60 4 -108 9 -108 5 0 29 9 53 20 57 25 144 35 181 21
54 -21 56 -78 7 -186 -37 -80 -145 -155 -223 -155 l-27 0 0 -83 0 -84 42 -12
c98 -29 177 -89 208 -157 21 -45 33 -95 50 -204 6 -41 16 -91 21 -111 30 -117
-23 -231 -113 -245 -44 -8 -120 24 -142 58 -25 39 -30 107 -12 177 27 105 18
159 -33 205 l-21 19 0 -544 c0 -411 3 -548 12 -557 8 -8 52 -12 131 -12 l119
0 -4 128 c-4 102 -9 136 -26 172 -14 29 -22 65 -22 101 0 48 4 59 29 84 26 24
36 27 67 22 42 -7 78 -37 100 -82 38 -80 92 -111 133 -77 39 30 34 108 -12
202 -62 126 -47 197 45 207 37 4 53 1 76 -16 55 -39 64 -74 60 -247 l-3 -155
-51 -47 c-56 -52 -68 -84 -82 -219 l-8 -73 127 0 127 0 11 43 c18 69 44 101
112 137 35 18 71 39 80 46 8 8 20 14 26 14 5 0 18 15 28 33 29 55 15 92 -61
167 -97 96 -108 123 -100 239 l7 95 -53 53 c-29 29 -57 53 -64 53 -6 0 -19 9
-29 20 -10 11 -23 20 -29 20 -14 0 -126 111 -126 126 0 6 -9 19 -20 29 -11 10
-20 22 -20 28 0 5 -10 22 -23 37 -96 122 -126 178 -134 256 -7 61 8 111 51
174 87 126 83 186 -20 290 -58 59 -64 69 -64 107 0 23 5 54 11 70 14 37 71
123 98 147 12 11 21 25 21 31 0 7 7 18 15 25 17 14 66 114 84 172 22 69 64
112 145 151 94 46 146 60 218 61 56 1 59 0 108 -49 27 -27 50 -54 50 -61 0 -6
21 -31 46 -54 43 -40 49 -42 92 -37 47 5 78 31 163 139 20 25 45 39 98 56 49
16 80 33 102 57 l32 34 83 -77 83 -77 -34 -18 c-42 -21 -45 -46 -15 -133 40
-116 -2 -162 -194 -214 -62 -16 -106 -20 -243 -20 -179 0 -231 10 -283 55 -92
80 -169 103 -220 68 -34 -23 -45 -38 -75 -103 -27 -55 -42 -86 -97 -192 -38
-73 -44 -120 -24 -188 9 -29 16 -73 16 -96 0 -84 20 -147 58 -183 31 -29 40
-33 75 -28 94 13 131 109 87 229 -17 46 -21 76 -18 125 5 81 32 113 102 120
40 5 51 2 72 -18 33 -30 43 -55 60 -154 8 -44 26 -111 40 -148 21 -55 25 -81
22 -133 -3 -57 -8 -68 -38 -99 -19 -20 -59 -48 -89 -62 -94 -46 -141 -101
-141 -163 0 -50 67 -119 155 -159 97 -45 131 -53 275 -61 145 -8 214 -24 276
-65 59 -39 75 -136 34 -218 -31 -63 -73 -87 -151 -87 -71 0 -107 20 -189 105
-88 90 -177 119 -234 74 -47 -37 -31 -81 64 -174 38 -37 72 -83 90 -121 17
-34 37 -67 45 -74 8 -7 15 -18 15 -25 0 -7 7 -18 15 -25 20 -16 43 -65 51
-105 9 -48 -26 -117 -79 -154 -23 -17 -62 -48 -87 -70 l-45 -40 219 -1 218 0
-6 26 c-26 101 -18 132 87 354 26 54 71 112 94 121 42 16 108 11 126 -9 28
-30 22 -116 -11 -187 -51 -108 -56 -131 -38 -179 20 -53 60 -72 109 -51 38 16
58 37 80 87 30 65 99 125 199 173 107 51 127 72 153 167 29 108 86 148 213
148 77 0 108 16 166 85 87 105 201 99 318 -14 32 -30 58 -60 58 -65 0 -5 19
-30 43 -57 65 -73 84 -101 95 -141 21 -77 -9 -119 -91 -126 -51 -4 -54 -3
-127 56 -103 82 -168 112 -271 127 -59 9 -105 -14 -174 -84 -27 -28 -53 -51
-58 -51 -22 0 -96 -74 -112 -112 -10 -24 -26 -61 -36 -84 -16 -36 -47 -68
-151 -157 l-33 -28 215 5 c292 6 343 21 405 121 76 121 130 148 213 106 47
-24 142 -137 162 -194 l14 -37 173 0 c95 0 173 2 173 5 0 11 -27 52 -58 88
-37 43 -43 94 -14 119 22 21 86 38 139 38 23 0 79 14 125 31 107 39 172 37
219 -7 35 -33 59 -81 59 -119 0 -39 -36 -110 -67 -134 l-28 -20 165 -1 166 0
-1 58 c0 51 5 66 38 115 46 71 104 109 173 115 48 4 55 2 90 -31 37 -33 39
-39 39 -94 0 -51 -4 -64 -38 -110 l-37 -53 152 0 152 0 -32 31 c-27 26 -32 39
-32 78 0 39 5 52 28 73 72 67 151 64 302 -11 107 -53 160 -94 186 -143 14 -27
17 -28 102 -28 57 0 92 4 100 13 8 7 51 14 101 17 92 6 129 22 201 86 43 39
92 55 134 43 45 -12 65 -42 73 -108 l6 -51 109 0 c126 0 111 -16 153 155 34
139 67 205 131 271 70 72 128 97 234 102 118 5 139 -6 273 -144 124 -128 161
-151 215 -133 72 24 149 116 178 214 18 63 18 56 -19 247 -10 52 -9 62 10 102
18 36 28 45 62 54 72 18 137 -7 214 -84 56 -55 67 -78 67 -139 0 -46 -59 -177
-99 -219 -27 -29 -81 -134 -81 -156 0 -38 42 -70 115 -89 39 -10 101 -30 139
-45 38 -14 70 -25 71 -24 4 6 34 198 45 283 22 178 38 214 142 332 41 46 44
54 57 168 9 71 13 83 40 107 67 60 148 20 170 -83 21 -95 46 -113 171 -123 65
-5 78 -10 99 -33 20 -23 23 -34 19 -80 -4 -43 -11 -60 -36 -86 -44 -45 -110
-67 -203 -67 -78 0 -160 -21 -192 -49 -48 -41 -69 -141 -45 -212 20 -61 80
-119 121 -119 33 0 87 32 144 83 49 45 61 51 108 55 81 7 143 -20 219 -93 35
-33 74 -82 87 -109 13 -26 29 -57 34 -68 9 -19 18 -19 150 -13 222 10 236 10
305 1 61 -8 67 -7 93 17 33 32 34 54 4 98 -31 47 -78 70 -256 129 -84 28 -167
61 -185 73 -102 71 -139 135 -140 239 0 66 1 69 39 108 37 38 42 40 103 40 92
0 179 -43 227 -113 14 -21 25 -40 25 -42 0 -5 57 -123 74 -153 19 -33 68 -82
82 -82 6 0 17 -6 23 -14 6 -7 39 -24 74 -36 111 -40 142 -58 190 -108 49 -53
62 -84 55 -132 l-5 -30 154 0 153 0 -2 163 -3 162 -25 3 c-58 7 -341 82 -382
101 -54 24 -125 91 -134 126 -3 14 -3 41 0 61 9 43 33 54 125 54 76 0 182 -32
346 -105 17 -7 40 -16 53 -20 l22 -6 0 224 0 224 -42 6 c-60 8 -99 51 -105
114 -6 57 9 75 95 118 l52 26 0 131 c0 126 -1 131 -18 115 -29 -26 -79 -20
-152 17 -90 47 -122 51 -194 26 -33 -11 -70 -20 -82 -20 -35 0 -64 37 -64 83
0 34 6 46 42 79 23 21 46 38 53 38 14 0 58 46 74 77 6 12 14 50 18 85 8 80 25
115 61 123 36 7 70 -6 101 -39 14 -14 29 -26 34 -26 6 0 18 -6 26 -14 9 -8 35
-17 59 -21 l42 -7 0 209 0 208 -59 0 c-48 0 -64 4 -83 23 -14 12 -29 22 -35
22 -5 0 -18 8 -27 19 -9 10 -37 24 -62 31 -107 30 -237 -62 -251 -178 -4 -35
2 -67 22 -127 20 -58 26 -94 23 -130 -8 -93 -90 -174 -162 -161 -54 10 -84 52
-101 140 -22 116 -20 143 15 182 82 94 105 217 65 345 -7 22 89 164 123 183
94 52 154 56 282 21 52 -14 112 -30 133 -36 22 -5 56 -18 78 -29 l39 -20 0
125 0 125 -76 0 c-70 0 -78 2 -105 29 -66 66 -17 147 115 191 l66 22 0 130 c0
124 -1 130 -17 115 -10 -8 -44 -23 -75 -32 -46 -13 -65 -14 -100 -5 -102 27
-210 193 -195 301 11 82 75 127 164 115 59 -8 96 -29 166 -95 l57 -55 0 175 0
174 -74 -3 c-55 -3 -83 0 -112 14 -42 19 -134 101 -134 120 0 6 -7 17 -16 25
-23 19 -63 102 -70 146 -7 45 15 110 87 258 58 120 104 169 209 218 41 19 83
37 93 41 16 5 17 44 17 634 l0 629 -107 27 c-102 26 -174 56 -270 113 -24 13
-78 33 -120 43 -135 32 -139 36 -236 232 -56 113 -59 121 -64 215 -7 116 -21
156 -64 177 -42 21 -68 20 -122 -3 -52 -22 -59 -40 -47 -119 12 -82 35 -152
80 -240 47 -92 57 -146 40 -207 -17 -61 -41 -80 -100 -80 -69 0 -101 33 -130
133 -12 42 -33 95 -46 117 -37 64 -208 222 -336 311 l-45 32 -16 100 c-18 117
-54 206 -103 253 -19 18 -34 37 -34 43 0 5 -8 19 -19 30 -46 51 -77 240 -67
402 11 159 10 180 -11 216 -10 18 -35 41 -54 51 -52 25 -89 9 -179 -78 -90
-87 -104 -95 -169 -95 -72 0 -103 28 -109 102 -4 48 0 65 32 132 47 99 52 125
31 169 -32 67 -90 89 -158 58 -25 -12 -56 -21 -68 -21 -20 0 -21 3 -14 58 9
72 15 82 64 116 25 18 49 47 66 83 32 64 87 122 118 125 47 3 73 -4 98 -28 34
-32 49 -85 49 -167 0 -36 5 -78 11 -94 14 -38 77 -101 118 -119 39 -16 136
-18 199 -4 83 20 156 -20 180 -96 8 -28 8 -54 0 -104 -13 -73 -10 -85 47 -249
l27 -74 -16 -86 c-31 -167 -22 -197 94 -316 81 -83 89 -95 104 -153 9 -35 16
-73 16 -84 0 -35 50 -115 84 -133 43 -23 130 -17 152 11 18 23 12 88 -18 189
-25 87 -22 173 10 233 12 24 58 86 102 137 116 136 124 155 131 305 4 93 12
145 31 205 14 44 31 115 37 158 17 107 30 134 98 197 78 74 100 104 118 166
20 68 19 86 -5 140 -22 48 -56 74 -133 102 -72 26 -102 62 -102 122 0 40 5 55
25 74 37 37 109 53 166 38 76 -21 127 -48 169 -92 66 -69 114 -100 155 -100
21 0 43 7 50 15 7 8 18 15 25 15 6 0 20 10 31 21 10 12 48 41 84 64 65 43 84
61 108 102 9 17 12 142 12 528 l0 505 -49 0 -49 0 -7 -47 c-4 -27 -14 -64 -22
-83 -35 -82 -73 -207 -73 -241 0 -34 5 -42 61 -85 70 -54 93 -96 83 -152 -17
-94 -65 -127 -172 -119 -35 3 -69 10 -74 15 -8 8 -4 44 12 124 38 185 38 174
-8 221 -77 81 -88 142 -48 281 9 33 14 66 12 73 -4 10 -40 13 -151 13 -80 0
-145 -2 -145 -5 0 -3 18 -51 40 -106 51 -129 55 -154 40 -281 -9 -85 -9 -114
1 -149 18 -58 76 -114 155 -150 35 -16 64 -34 64 -40 0 -33 -28 -96 -56 -125
-29 -31 -36 -34 -90 -34 -35 0 -81 8 -112 20 -102 39 -170 25 -289 -59 -37
-27 -61 -35 -104 -39 -53 -4 -57 -2 -83 28 -22 27 -26 41 -24 79 3 42 6 48 38
63 19 9 58 28 85 41 60 29 95 76 95 126 0 39 -7 54 -57 125 -30 43 -37 61 -34
98 1 20 50 68 69 68 7 0 33 21 57 46 43 44 45 49 45 104 0 71 -12 103 -59 153
-34 36 -38 37 -102 37 l-67 0 -58 -62 c-126 -132 -137 -138 -202 -122 -50 13
-75 51 -80 124 l-4 60 -157 0 -156 0 106 -107 c113 -115 139 -157 139 -223 0
-34 -6 -48 -34 -76 -37 -37 -68 -42 -127 -23 -21 7 -78 54 -145 120 -61 60
-116 109 -121 109 -15 0 -63 75 -69 110 -4 16 -2 43 4 60 l11 30 -120 0 -119
0 0 -98 c0 -112 5 -125 80 -217 28 -33 70 -89 94 -125 54 -81 114 -141 185
-187 57 -37 151 -121 151 -135 0 -4 20 -34 45 -65 114 -146 135 -174 135 -179
0 -9 44 -68 80 -107 19 -21 60 -50 90 -64 52 -25 130 -88 130 -105 0 -5 12
-27 27 -51 15 -23 32 -49 38 -58 26 -42 50 -76 70 -99 29 -33 55 -107 55 -153
0 -51 -26 -112 -77 -179 -54 -71 -82 -132 -83 -179 0 -35 25 -124 41 -145 5
-5 15 -36 23 -67 19 -72 7 -119 -41 -164 -30 -29 -41 -33 -89 -33 -48 0 -58 4
-96 38 -66 60 -82 106 -81 242 1 119 12 164 61 270 64 135 78 238 42 298 -40
65 -104 65 -166 0 -83 -86 -178 -118 -296 -98 -35 5 -66 10 -70 10 -4 0 -23
14 -43 31 -28 25 -35 38 -35 68 0 59 37 87 146 110 102 21 119 28 154 66 17
18 25 37 25 65 0 90 -123 149 -218 106 -115 -52 -147 -57 -205 -27 -60 30 -81
101 -42 136 11 10 61 32 112 49 103 35 125 57 107 105 -20 51 -73 93 -194 151
-149 71 -172 95 -255 265 l-63 128 -3 111 c-1 94 -6 121 -28 173 -14 34 -26
74 -26 88 l0 25 -248 0 -249 0 5 -28z m1707 -532 c50 -47 57 -167 11 -208 -23
-21 -97 -42 -150 -42 -47 0 -82 15 -111 46 -21 22 -25 37 -25 85 0 53 3 62 33
92 43 42 86 57 159 53 45 -2 63 -8 83 -26z m-1120 -371 c69 -19 135 -96 135
-157 0 -56 -118 -130 -219 -139 -73 -6 -86 5 -116 94 -29 86 -25 119 20 163
49 47 105 59 180 39z m-250 -1130 c8 -46 -14 -89 -45 -89 -24 0 -24 -4 -4 75
18 73 38 78 49 14z m219 -334 c20 -14 40 -25 43 -25 4 0 14 -6 22 -13 9 -8 51
-26 93 -41 103 -37 143 -79 135 -144 -10 -89 -128 -172 -246 -172 -45 0 -56 5
-91 36 -59 53 -134 212 -135 282 0 47 4 57 28 78 39 33 101 33 151 -1z m-307
-255 c37 -71 23 -183 -26 -210 -38 -20 -113 -5 -125 25 -2 7 11 69 31 138 l36
125 30 -17 c17 -9 41 -37 54 -61z m657 -291 c33 -39 33 -69 -4 -171 -59 -166
-70 -226 -70 -383 0 -125 -3 -151 -20 -184 -33 -67 -94 -61 -172 16 -62 61
-88 128 -88 225 0 66 4 98 31 268 18 105 55 167 134 219 56 37 64 40 117 40
40 1 50 -3 72 -30z m-549 -129 c41 -40 51 -78 35 -135 -15 -55 -53 -90 -110
-106 -65 -17 -113 -5 -156 38 -35 34 -36 38 -32 94 3 45 10 65 29 85 42 46 88
65 147 61 44 -3 59 -9 87 -37z m901 -125 c21 -14 24 -23 24 -81 0 -109 -44
-166 -118 -149 -96 21 -140 202 -58 244 28 15 122 6 152 -14z m-1276 -294 c15
-9 44 -27 66 -42 21 -14 68 -37 104 -53 39 -16 84 -46 113 -74 46 -45 65 -77
118 -202 33 -79 68 -141 95 -171 13 -14 24 -30 24 -36 0 -6 7 -16 15 -23 9 -7
25 -33 35 -56 17 -36 20 -65 20 -190 0 -139 2 -150 26 -201 33 -67 87 -114
184 -160 118 -55 147 -91 176 -213 18 -78 11 -125 -24 -162 -46 -49 -136 -29
-179 39 -55 88 -118 143 -161 143 -14 0 -41 29 -90 98 -73 103 -92 143 -92
200 0 60 -36 261 -53 297 -5 11 -23 35 -40 53 -26 26 -38 32 -74 32 -24 0 -60
-7 -80 -15 -20 -8 -37 -14 -38 -13 -1 2 -30 45 -64 95 l-61 93 27 22 c75 63
85 79 81 138 -7 90 -66 160 -136 160 -22 0 -45 -12 -79 -41 l-48 -42 -17 39
c-22 46 -18 74 23 199 17 50 32 96 35 103 5 17 54 8 94 -17z m1514 -162 c41
-32 36 -92 -14 -184 -22 -40 -40 -84 -40 -98 0 -36 25 -89 55 -117 50 -47 111
-148 139 -232 34 -100 76 -283 76 -333 0 -43 -5 -59 -27 -85 -25 -30 -30 -32
-75 -28 -33 4 -57 13 -74 29 -37 35 -87 139 -118 248 -30 103 -51 150 -100
220 -30 42 -55 104 -70 173 -9 39 -52 86 -87 93 -40 9 -99 -22 -169 -89 -88
-85 -164 -106 -240 -68 -88 44 -78 163 22 260 36 35 54 44 100 51 67 11 125
35 158 64 65 57 92 69 245 105 22 6 74 10 116 11 63 1 81 -3 103 -20z m657
-325 c118 -58 151 -111 188 -304 28 -148 24 -168 -38 -228 -24 -24 -54 -48
-65 -53 -12 -5 -37 -19 -56 -31 -27 -17 -51 -22 -102 -22 -63 -1 -69 1 -102
33 -31 30 -36 42 -36 79 0 41 5 49 65 110 77 77 83 105 34 146 -30 26 -34 26
-119 20 -81 -6 -89 -5 -109 15 -41 41 -20 153 39 206 69 62 205 75 301 29z
m462 -66 c91 -63 145 -137 157 -214 5 -28 6 -119 3 -200 -4 -122 -2 -160 12
-209 50 -177 50 -179 30 -244 -12 -42 -29 -71 -56 -97 -33 -32 -46 -38 -94
-42 -48 -4 -59 -1 -79 17 -31 29 -39 72 -25 142 13 64 7 91 -44 198 -50 108
-45 160 31 296 12 21 17 53 17 105 -1 74 -7 96 -44 155 -19 29 -28 95 -14 108
14 15 76 6 106 -15z m-1470 -352 c18 -7 41 -24 53 -37 27 -31 54 -105 54 -147
0 -46 20 -124 36 -143 8 -8 14 -20 14 -25 0 -18 205 -211 242 -227 47 -22 82
-21 146 3 29 11 74 20 101 20 40 0 54 -5 80 -29 49 -46 44 -71 -48 -236 -40
-71 -38 -70 -143 -50 -51 9 -118 29 -148 42 -30 14 -91 41 -134 59 -97 41
-147 75 -188 126 -27 35 -32 51 -39 131 -5 50 -14 106 -20 125 -11 35 -83 136
-113 162 -9 7 -16 18 -16 25 0 7 -6 18 -14 24 -18 15 -66 106 -66 125 0 18 22
36 67 52 49 17 96 17 136 0z m1156 -435 c53 -38 63 -77 56 -214 -4 -78 -3
-139 4 -170 9 -36 8 -58 0 -88 -16 -52 -40 -72 -89 -72 -62 0 -85 28 -109 131
-11 48 -29 99 -41 114 -11 15 -20 30 -20 34 0 4 -16 25 -36 47 -34 37 -36 43
-32 94 4 46 10 60 42 92 21 21 52 43 69 49 45 15 122 7 156 -17z m-999 -472
c19 -34 4 -69 -28 -69 -33 0 -52 16 -52 45 0 45 60 63 80 24z m-366 -29 c32
-30 47 -54 60 -98 33 -107 17 -105 -60 8 -93 139 -89 130 -64 130 11 0 40 -18
64 -40z m934 16 c76 -40 97 -112 47 -161 -34 -35 -78 -33 -116 4 -32 32 -38
81 -18 140 12 35 41 41 87 17z m-328 -154 c41 -20 70 -71 70 -125 0 -97 -69
-309 -130 -402 -11 -16 -27 -44 -37 -62 -9 -18 -22 -34 -28 -37 -7 -2 -30 23
-52 57 -22 34 -63 94 -91 133 l-51 71 30 29 c41 39 83 116 103 189 35 127 41
139 66 152 34 17 78 15 120 -5z m621 -153 c46 -14 91 -60 113 -117 21 -55 21
-201 1 -260 -51 -147 -115 -199 -193 -158 -26 14 -37 30 -82 126 -33 71 -45
89 -83 128 -80 84 -87 156 -22 222 58 60 176 85 266 59z m-330 -500 c32 -34
44 -82 34 -131 -9 -42 -45 -150 -55 -163 -15 -21 -40 -110 -40 -142 0 -19 -5
-43 -11 -55 -12 -22 -17 -16 -121 152 -51 83 -51 82 -15 220 22 80 27 92 55
123 21 22 34 27 75 27 42 0 53 -4 78 -31z m-8310 -79 c25 -14 25 -56 -1 -97
-26 -43 -54 -56 -104 -50 -41 6 -62 24 -73 65 -6 25 26 67 62 82 29 12 93 12
116 0z m8684 -220 c14 -13 44 -60 66 -104 22 -45 46 -87 52 -95 6 -7 16 -21
22 -31 5 -10 26 -40 45 -66 33 -46 35 -54 35 -126 l0 -78 -52 -51 c-47 -48
-56 -53 -105 -56 -98 -8 -112 6 -164 161 -14 44 -34 94 -44 111 -27 48 -70
183 -70 220 0 46 25 99 57 125 38 30 121 24 158 -10z m-8814 -139 c17 -18 29
-40 29 -56 0 -105 -121 -127 -169 -30 -42 86 70 155 140 86z m1712 -1022 c40
-22 76 -44 81 -49 14 -14 -26 -71 -64 -91 -66 -36 -105 -21 -129 50 -21 64 -9
131 25 131 8 0 47 -18 87 -41z m419 -201 c37 -12 68 -25 68 -28 0 -3 -20 -26
-45 -50 -42 -41 -50 -45 -95 -45 -58 0 -78 16 -87 69 -5 30 -1 41 18 62 27 29
38 29 141 -8z m-507 -68 c54 -56 45 -131 -29 -257 -14 -24 -23 -49 -20 -57 12
-31 84 -30 174 3 104 38 139 39 180 4 31 -25 32 -29 28 -85 -3 -43 -10 -64
-28 -83 -50 -53 -272 -145 -351 -145 -29 0 -47 8 -74 31 -30 27 -35 37 -35 75
0 24 9 67 20 96 11 29 20 60 20 68 0 14 -60 60 -78 60 -4 0 -28 20 -52 45 -43
44 -45 48 -45 105 0 54 3 62 35 95 40 42 66 55 130 65 83 13 95 11 125 -20z
m1842 -14 c18 -18 47 -40 65 -49 18 -9 45 -28 60 -44 36 -38 68 -142 68 -218
0 -52 -4 -66 -24 -88 -32 -34 -69 -43 -125 -28 -54 14 -89 49 -261 264 -50 62
-67 137 -32 137 9 1 60 14 112 30 52 15 97 29 100 29 3 1 20 -14 37 -33z
m-525 -70 c116 -59 147 -120 92 -185 l-26 -31 -117 1 c-125 1 -154 -6 -187
-42 -64 -71 -56 -157 23 -241 40 -42 129 -54 163 -23 9 8 20 15 25 15 5 0 38
29 75 64 75 73 111 86 174 63 33 -11 45 -23 69 -71 26 -52 29 -68 30 -155 1
-107 -17 -161 -77 -231 -63 -72 -78 -107 -84 -196 -3 -61 -1 -77 21 -120 14
-27 51 -74 82 -104 73 -71 99 -120 92 -173 -7 -51 -33 -77 -86 -84 -73 -10
-114 15 -243 144 -127 129 -159 179 -166 259 -7 80 19 136 100 220 56 57 71
79 75 110 4 32 1 43 -17 59 -19 17 -39 20 -141 23 -135 4 -182 -7 -264 -61
-46 -30 -104 -97 -124 -142 -5 -12 -16 -27 -25 -34 -9 -7 -16 -19 -16 -26 0
-7 -20 -31 -45 -54 -38 -35 -51 -41 -88 -41 -33 0 -51 6 -70 24 -36 33 -43 69
-27 146 25 129 24 150 -9 222 -36 78 -41 156 -16 277 28 131 59 175 134 186
177 26 234 56 286 150 21 36 43 71 49 78 9 9 49 11 147 7 123 -5 139 -7 191
-34z m5574 -23 c-19 -163 -19 -187 4 -240 12 -28 33 -61 46 -74 13 -12 24 -28
24 -34 0 -6 12 -22 26 -36 44 -41 91 -168 79 -212 -23 -82 -52 -107 -126 -107
-34 0 -46 6 -73 34 -47 52 -86 103 -86 113 0 5 -27 35 -61 68 -70 70 -75 78
-99 159 -10 34 -29 86 -42 116 -43 95 -50 117 -46 150 3 33 4 34 93 56 166 42
210 51 239 53 28 1 28 1 22 -46z m-7535 -30 c48 -19 78 -72 79 -139 0 -84 9
-101 79 -157 86 -70 192 -207 198 -258 14 -100 -14 -132 -128 -144 -81 -9
-121 -28 -162 -75 -78 -90 -166 -85 -182 10 -7 40 6 76 61 168 42 69 73 264
51 315 -7 15 -34 44 -62 65 -59 45 -75 72 -75 133 0 58 28 88 92 98 4 0 26 -6
49 -16z m6885 -132 c72 -52 87 -76 92 -139 4 -57 3 -57 -42 -102 -25 -24 -46
-52 -46 -61 0 -9 31 -39 68 -67 38 -28 86 -72 107 -97 48 -60 95 -88 186 -116
132 -39 168 -58 190 -100 22 -44 25 -102 6 -139 -19 -38 -84 -70 -142 -70 -83
0 -131 25 -230 120 -102 97 -148 126 -231 141 -94 17 -183 73 -306 192 -55 53
-58 58 -58 104 0 60 20 83 95 107 99 32 108 50 81 153 l-14 53 71 21 c40 11
77 22 82 24 28 9 56 2 91 -24z m-698 -215 c17 -45 15 -68 -9 -149 -23 -79 -21
-137 6 -167 10 -11 48 -31 85 -45 148 -57 213 -200 128 -282 -25 -24 -37 -28
-88 -28 -54 0 -62 3 -95 35 -20 19 -50 62 -67 95 -39 77 -62 102 -118 126 -88
39 -111 54 -126 84 -17 32 -44 178 -44 236 l0 35 148 51 c81 27 152 48 158 46
5 -2 16 -18 22 -37z m-578 -173 c-40 -129 -38 -160 14 -233 44 -62 65 -125 76
-226 12 -118 -6 -178 -72 -240 -48 -46 -90 -64 -147 -64 -40 0 -53 4 -65 22
-20 29 -20 108 -1 173 41 133 60 293 41 339 -16 38 -68 79 -124 98 -24 8 -43
19 -43 23 0 5 21 17 48 26 26 10 100 38 163 63 63 24 116 45 117 45 1 1 -3
-11 -7 -26z m2503 -25 c81 -46 137 -121 137 -183 0 -35 -7 -50 -40 -88 -22
-25 -40 -49 -40 -54 0 -4 -67 -75 -149 -156 -147 -145 -149 -147 -193 -147
-35 0 -50 6 -69 26 -21 22 -24 35 -23 92 2 76 16 111 85 217 26 39 65 106 89
150 55 105 103 155 147 155 18 0 43 -6 56 -12z m-7200 -86 c37 -38 34 -106 -8
-213 -50 -125 -64 -187 -65 -290 0 -75 -4 -94 -27 -139 -34 -63 -93 -100 -161
-100 -83 0 -112 44 -112 172 0 53 -6 80 -31 133 -17 37 -33 81 -36 99 -7 46
19 97 69 132 23 16 87 72 142 125 56 53 108 99 116 102 27 11 93 -1 113 -21z
m4265 -53 c-37 -49 -31 -107 20 -209 54 -109 58 -165 11 -204 -35 -30 -93 -35
-137 -12 -83 44 -179 217 -170 308 3 32 6 34 143 90 77 31 144 57 148 57 4 1
-3 -13 -15 -30z m-538 -198 c0 -18 -51 -41 -92 -41 l-43 1 55 24 c60 26 80 30
80 16z m-153 -57 c-3 -3 -12 -4 -19 -1 -8 3 -5 6 6 6 11 1 17 -2 13 -5z m-55
-31 c-36 -54 -52 -102 -58 -177 l-7 -75 40 -41 c34 -34 47 -40 82 -40 46 0 97
28 146 79 41 44 80 61 136 61 86 0 133 -68 115 -165 -11 -56 -70 -114 -176
-173 -120 -68 -226 -102 -314 -102 -53 0 -126 -24 -189 -63 -26 -16 -65 -31
-87 -34 -34 -5 -43 -1 -70 25 -16 17 -30 39 -30 49 1 35 36 82 95 126 75 57
107 98 129 165 17 49 17 55 1 103 -10 28 -24 63 -31 78 -8 14 -14 49 -14 77
l0 51 118 41 c64 22 121 41 125 41 5 1 0 -11 -11 -26z m-1427 -128 c33 -34 35
-40 35 -101 0 -80 -16 -119 -84 -198 -75 -86 -130 -126 -178 -126 -46 0 -67
11 -133 68 -73 64 -95 99 -95 148 0 63 52 111 202 185 152 74 198 79 253 24z"/>
<path d="M2852 1553 c-52 -25 -54 -104 -4 -119 39 -11 54 -6 80 22 26 30 28
65 5 86 -29 24 -48 27 -81 11z"/>
<path d="M0 9252 l0 -300 33 -6 c36 -7 71 -40 101 -96 28 -52 85 -108 117
-115 35 -8 92 18 115 52 31 48 14 88 -75 177 -86 89 -90 96 -122 256 -22 108
-71 229 -117 285 -53 65 -52 71 -52 -253z"/>
<path d="M6655 9390 c-3 -5 -15 -10 -26 -10 -28 0 -129 -97 -129 -124 0 -12
-5 -27 -12 -34 -6 -6 -9 -15 -5 -18 3 -3 29 17 56 45 61 62 140 101 221 108
56 5 76 23 25 23 -13 0 -27 5 -30 10 -3 6 -26 10 -50 10 -24 0 -47 -4 -50 -10z"/>
<path d="M4780 8955 c0 -6 79 -79 91 -83 22 -8 6 33 -22 59 -27 25 -69 40 -69
24z"/>
<path d="M580 8783 c-42 -17 -69 -62 -105 -173 -10 -30 -25 -63 -34 -73 -20
-24 -76 -47 -112 -47 -34 0 -142 28 -249 64 -41 14 -76 26 -77 26 -2 0 -3 -69
-3 -154 l0 -154 53 -26 c54 -26 175 -56 228 -56 43 0 109 -33 145 -72 43 -46
64 -98 64 -158 0 -44 -4 -56 -29 -81 -24 -24 -38 -29 -78 -29 -51 0 -97 23
-159 82 -41 38 -90 45 -165 23 l-59 -18 0 -121 0 -121 55 0 c54 0 55 -1 122
-67 58 -58 76 -69 128 -83 32 -8 71 -15 86 -15 50 0 159 -40 195 -72 41 -36
56 -68 73 -163 7 -38 26 -112 43 -163 25 -79 30 -105 26 -172 -4 -94 -21 -118
-87 -127 -94 -13 -127 36 -141 206 -14 176 -42 227 -155 282 -46 22 -82 45
-167 107 -37 26 -67 28 -116 5 -51 -24 -61 -40 -62 -99 0 -76 38 -109 177
-153 61 -20 104 -69 110 -125 5 -44 -1 -68 -35 -143 -19 -44 -10 -86 33 -153
37 -57 49 -87 85 -210 32 -105 130 -317 170 -364 23 -28 120 -67 202 -81 20
-3 58 -15 83 -26 67 -30 144 -40 176 -23 14 7 46 46 69 86 50 85 114 178 182
264 26 34 48 65 48 68 0 3 -8 6 -17 6 -10 0 -27 7 -37 15 -14 10 -45 15 -103
15 -95 0 -161 -25 -235 -89 -70 -60 -93 -71 -148 -71 -200 0 -110 321 121 430
78 37 109 37 262 5 137 -29 178 -46 281 -119 l28 -19 96 97 97 96 -161 159
c-201 198 -223 211 -365 211 -171 0 -208 21 -235 135 -26 105 -38 126 -120
216 -42 46 -80 93 -85 107 -19 49 -10 130 20 195 73 152 65 191 -58 312 l-85
83 -4 66 -4 66 89 88 c73 72 92 96 102 135 28 99 -10 167 -96 173 -26 2 -55 1
-63 -3z"/>
<path d="M4051 8686 c-42 -15 -71 -50 -71 -86 0 -16 16 -57 35 -93 38 -71 45
-128 20 -164 -9 -12 -43 -31 -82 -43 -57 -19 -80 -34 -138 -90 -57 -55 -82
-72 -135 -89 -78 -26 -91 -35 -113 -83 -17 -36 -17 -39 2 -81 11 -24 27 -50
36 -57 33 -28 78 -107 83 -146 6 -58 -25 -117 -102 -194 -36 -35 -66 -69 -66
-75 0 -22 -137 -143 -187 -166 -29 -13 -53 -29 -53 -35 0 -6 21 -32 46 -58 25
-27 52 -64 60 -82 8 -19 16 -34 19 -34 9 0 85 42 90 50 3 5 26 19 50 31 25 12
55 33 67 46 12 13 26 23 32 23 5 0 19 8 30 18 37 33 107 52 189 52 125 0 187
40 187 122 0 36 -57 135 -100 173 -55 49 -83 151 -56 204 25 47 97 67 149 40
30 -15 146 -129 158 -154 5 -11 19 -36 30 -55 18 -29 23 -58 29 -165 7 -141
25 -198 74 -244 14 -14 26 -29 26 -35 0 -5 8 -19 18 -30 35 -39 55 -112 50
-183 -4 -60 -7 -68 -41 -99 -30 -28 -45 -34 -79 -34 -76 0 -92 16 -147 140
-27 63 -79 110 -127 117 -33 4 -47 -1 -94 -32 -30 -21 -68 -50 -85 -66 -48
-45 -132 -79 -195 -79 -92 0 -98 -25 -17 -67 18 -9 68 -40 112 -70 84 -58 85
-58 165 -28 125 47 236 -39 197 -151 -31 -88 -33 -81 62 -182 l87 -93 30 16
c57 30 95 18 177 -54 32 -28 64 -51 72 -51 7 0 26 11 42 24 15 13 49 33 74 45
25 12 55 34 67 50 11 15 99 125 196 244 97 119 176 220 176 226 0 5 -12 24
-27 41 -14 17 -39 57 -55 88 -32 61 -173 212 -223 238 -16 9 -62 20 -102 24
-106 11 -159 42 -197 116 -26 49 -31 71 -31 131 0 57 4 77 21 100 29 38 64 49
111 35 60 -19 80 -41 118 -132 47 -112 61 -126 128 -122 167 10 194 8 222 -18
15 -14 36 -45 47 -70 20 -47 39 -86 64 -132 15 -28 79 -88 93 -88 16 0 44 53
43 82 -1 25 -114 201 -280 436 l-44 62 -34 -30 c-44 -38 -107 -42 -149 -8 -25
19 -27 26 -22 71 4 44 10 56 46 89 22 21 41 41 41 44 0 30 -281 366 -294 353
-3 -3 3 -22 13 -41 18 -36 18 -36 -5 -66 -22 -27 -54 -125 -54 -162 0 -23 -42
-60 -67 -60 -33 0 -84 21 -131 54 -24 17 -52 36 -63 42 -70 40 -102 109 -97
210 3 68 6 76 38 109 45 46 89 65 155 65 67 0 74 9 26 31 -88 39 -171 144
-186 235 -11 67 -15 72 -60 93 -51 24 -48 24 -94 7z m723 -1797 c79 -62 74
-234 -10 -310 -30 -27 -82 -49 -116 -49 -40 0 -103 38 -122 73 -29 55 -20 158
19 217 57 84 168 117 229 69z"/>
<path d="M9886 8593 c-40 -82 -79 -119 -173 -164 -152 -73 -167 -123 -69 -237
79 -92 63 -125 -75 -163 -41 -11 -81 -27 -90 -35 -8 -8 -18 -14 -22 -14 -15 0
-97 -63 -135 -104 -58 -62 -69 -106 -53 -209 34 -219 26 -254 -89 -372 -43
-44 -83 -90 -89 -102 -26 -51 -6 -96 83 -180 69 -65 85 -94 105 -183 19 -86
34 -132 53 -165 10 -16 22 -39 27 -50 5 -11 21 -37 35 -58 14 -21 26 -41 26
-46 0 -4 9 -16 20 -26 11 -10 20 -23 20 -29 0 -7 19 -31 43 -54 50 -50 89 -60
166 -43 42 9 66 8 117 -4 81 -19 108 -19 123 -1 8 9 10 138 9 457 -2 291 -6
437 -13 424 -5 -11 -21 -38 -35 -60 -14 -22 -31 -49 -38 -60 -29 -46 -72 -142
-77 -170 -2 -16 -9 -63 -16 -103 -14 -95 -43 -132 -101 -132 -33 0 -46 6 -72
35 -18 19 -39 56 -48 82 -9 27 -29 80 -43 118 -21 56 -26 83 -23 132 5 74 16
89 101 132 106 54 116 61 140 113 21 46 21 50 -3 104 -13 27 -35 53 -58 68
-62 39 -128 109 -135 144 -12 60 28 131 88 156 17 7 68 18 115 25 47 7 115 20
153 28 l67 16 0 393 c0 217 -2 394 -3 394 -2 0 -16 -26 -31 -57z"/>
<path d="M9902 7578 c-16 -16 -15 -57 3 -88 14 -24 14 -22 15 38 0 34 -1 62
-3 62 -2 0 -8 -5 -15 -12z"/>
<path d="M0 6362 l0 -612 108 -2 c163 -4 185 -2 233 20 84 39 125 109 100 174
-11 30 -82 68 -128 68 -15 0 -47 9 -70 19 -35 17 -43 25 -49 57 -4 22 -2 57 4
81 7 24 12 63 12 87 0 46 -30 125 -55 146 -8 7 -15 17 -15 22 0 6 -12 29 -28
52 -43 63 -84 153 -89 195 -6 44 11 104 38 140 32 40 25 82 -21 126 l-40 39 0
-612z"/>
<path d="M2930 6338 c-78 -22 -233 -154 -292 -248 -112 -180 -156 -324 -160
-530 -2 -98 -1 -108 24 -149 80 -134 399 -441 457 -441 39 0 158 102 214 184
27 40 91 76 133 76 32 0 55 -9 167 -67 26 -14 31 -13 65 11 60 42 142 117 142
130 0 7 -13 25 -30 41 -16 16 -30 33 -30 38 0 5 -13 37 -29 71 -33 71 -83 125
-140 151 -22 9 -43 25 -46 34 -28 70 -41 173 -37 305 l2 59 93 -6 c50 -3 99
-8 108 -12 11 -4 18 -22 21 -49 11 -94 63 -172 243 -364 67 -72 82 -80 96 -48
16 34 -25 159 -94 286 -45 83 -68 112 -187 228 -162 159 -214 201 -309 247
-113 55 -314 81 -411 53z m210 -566 c-17 -66 -44 -92 -95 -92 -37 0 -75 18
-75 36 0 17 58 89 111 139 l64 59 3 -52 c2 -28 -2 -69 -8 -90z m229 -195 c32
-39 21 -122 -26 -184 -31 -43 -78 -45 -114 -7 -20 21 -24 36 -24 84 0 85 31
115 121 119 17 0 37 -5 43 -12z m-459 -144 c46 -40 80 -106 80 -152 0 -45 -50
-98 -101 -106 -62 -11 -72 4 -65 95 7 75 24 178 33 193 7 11 10 9 53 -30z"/>
<path d="M4360 6243 c0 -5 15 -35 33 -67 36 -68 62 -90 77 -66 18 29 10 51
-37 95 -42 41 -73 57 -73 38z"/>
<path d="M4520 6170 c0 -5 5 -10 10 -10 6 0 10 5 10 10 0 6 -4 10 -10 10 -5 0
-10 -4 -10 -10z"/>
<path d="M1839 6073 c-102 -109 -228 -313 -294 -473 -24 -59 -73 -209 -89
-270 -4 -14 -23 -86 -42 -160 -49 -192 -68 -490 -44 -717 15 -140 107 -457
167 -577 108 -214 364 -472 608 -615 116 -68 108 -63 227 -117 129 -58 176
-73 258 -84 36 -5 85 -13 110 -19 25 -5 72 -10 106 -11 60 0 60 0 91 44 51 72
61 75 244 87 157 9 167 11 235 44 118 58 208 148 334 334 l43 64 -19 35 c-10
20 -36 56 -57 81 -77 94 -89 149 -43 199 29 33 63 49 121 57 107 14 157 29
170 49 7 12 16 59 20 106 4 47 13 115 20 151 15 70 55 369 55 407 0 33 -33 28
-77 -11 -152 -134 -389 -273 -580 -341 -105 -38 -272 -59 -416 -54 -104 4
-135 9 -213 36 -50 18 -132 55 -183 83 -51 28 -94 49 -97 47 -2 -3 43 -52 100
-111 85 -86 102 -108 91 -117 -25 -21 -91 -23 -141 -6 -26 9 -70 16 -96 16
-55 0 -73 -11 -171 -104 -32 -31 -71 -57 -88 -61 -59 -13 -159 13 -189 50 -29
35 30 175 87 207 35 19 148 48 188 48 60 0 175 80 175 122 0 16 -16 36 -52 64
-45 35 -62 42 -111 46 -68 6 -102 32 -118 92 -18 67 -38 104 -66 125 -44 35
-69 25 -155 -62 -68 -68 -102 -75 -149 -28 -26 26 -29 36 -29 90 0 71 20 114
85 181 24 25 47 57 50 71 7 28 -11 72 -47 118 -10 13 -28 55 -39 93 -20 63
-21 86 -16 276 5 217 21 343 58 443 11 31 19 69 17 83 l-3 27 -36 -38z m-91
-1515 c7 -7 12 -23 12 -36 0 -25 -29 -82 -42 -82 -4 0 -8 29 -8 65 0 66 10 81
38 53z m-12 -305 c6 -10 50 -44 97 -76 112 -77 114 -78 99 -130 -33 -114 -35
-141 -16 -208 27 -98 29 -161 7 -180 -29 -26 -68 -31 -85 -11 -39 45 -118 367
-125 510 -6 109 0 132 23 95z m934 -280 c23 -20 49 -55 59 -77 64 -143 106
-346 100 -488 -4 -75 -7 -90 -28 -112 -51 -55 -134 -51 -189 8 -52 56 -66 114
-67 276 -1 131 -4 152 -28 216 -51 136 -27 214 67 214 39 0 52 -6 86 -37z
m835 -78 c25 -59 29 -129 11 -230 -29 -163 -102 -242 -233 -253 -161 -13 -292
99 -293 251 0 49 4 62 25 83 29 29 41 27 123 -17 64 -35 92 -36 119 -6 29 31
36 62 25 100 -6 17 -13 50 -16 72 l-5 40 113 0 113 0 18 -40z m-1241 -130 c22
-24 78 -181 92 -257 9 -56 -3 -104 -36 -137 -37 -37 -80 -47 -135 -31 -91 25
-141 123 -133 259 4 65 9 83 38 124 36 53 56 65 113 66 28 1 44 -5 61 -24z"/>
<path d="M778 5893 c-14 -2 -32 -11 -38 -19 -7 -8 -18 -14 -24 -14 -7 0 -30
-18 -51 -40 -33 -33 -40 -47 -40 -80 0 -32 7 -47 33 -73 31 -31 36 -32 107
-31 43 0 80 5 87 12 11 11 78 197 78 217 0 26 -73 40 -152 28z"/>
<path d="M6229 5668 c-13 -24 -57 -139 -212 -553 -25 -66 -63 -167 -85 -225
-107 -282 -284 -860 -417 -1355 -39 -144 -87 -309 -140 -475 -85 -268 -137
-462 -159 -585 -20 -112 -63 -400 -72 -478 -8 -71 3 -83 55 -60 20 8 94 37
165 64 71 27 140 56 154 65 29 19 53 73 62 139 6 44 40 183 47 194 1 2 23 -19
49 -48 25 -28 51 -51 57 -51 6 0 19 -8 30 -17 16 -15 36 -18 115 -16 67 1 104
-3 124 -13 26 -14 38 -10 225 62 109 42 207 81 217 86 11 6 49 39 86 73 85 80
142 103 208 85 75 -20 109 -16 247 29 72 24 156 50 188 58 64 17 63 15 41 90
-4 16 1 26 23 39 201 128 381 314 436 452 19 48 22 143 6 207 -10 41 -4 99 15
145 4 9 -15 48 -48 98 -62 94 -52 96 -106 -18 -32 -67 -48 -80 -98 -87 -54 -7
-112 25 -151 82 -17 25 -31 48 -31 51 0 2 -12 23 -27 47 -54 83 -83 151 -83
197 0 50 23 118 57 169 30 44 36 71 31 129 -5 48 -11 57 -233 372 -104 147
-95 141 -109 77 -4 -15 -28 -51 -54 -80 -63 -70 -88 -126 -101 -225 -6 -45
-18 -99 -28 -120 -25 -54 -101 -150 -131 -167 -15 -9 -40 -24 -57 -35 -16 -11
-37 -23 -45 -27 -8 -4 -41 -27 -73 -51 -69 -53 -109 -60 -196 -38 -34 9 -71
16 -81 16 -40 0 -40 22 -1 138 21 61 40 114 43 117 3 3 24 -4 47 -16 74 -38
165 -25 217 33 30 33 58 112 51 146 -8 38 -54 139 -68 147 -5 4 -15 17 -20 28
-5 12 -18 36 -28 52 -32 50 -23 151 17 198 21 24 99 22 184 -5 62 -20 74 -21
138 -10 38 6 89 9 114 6 26 -4 46 -3 46 1 0 4 -29 49 -64 100 l-65 92 -53 6
c-29 4 -75 7 -102 7 -40 0 -82 9 -123 25 -1 1 11 34 27 74 17 40 30 81 30 91
0 11 9 25 21 33 20 15 20 16 -33 89 -30 40 -82 114 -115 163 -146 219 -145
218 -164 183z m848 -1294 c22 -22 25 -32 21 -72 -6 -61 -47 -126 -94 -148 -48
-23 -101 -21 -126 4 -27 27 -35 100 -15 138 47 90 160 132 214 78z m-612 -525
c67 -17 90 -48 90 -122 0 -84 -30 -168 -78 -217 l-38 -40 -99 0 c-90 0 -101
-2 -128 -25 -35 -29 -50 -81 -63 -210 -32 -330 -39 -365 -83 -419 -18 -23 -53
-54 -76 -71 -23 -16 -56 -41 -73 -55 -57 -45 -91 -66 -126 -78 -35 -13 -84
-16 -93 -7 -5 6 29 136 56 213 8 23 26 57 38 75 46 65 80 130 130 257 39 96
44 137 24 196 -9 26 -16 59 -16 73 0 31 48 191 58 191 4 1 42 2 85 3 78 2 79
2 115 43 20 23 57 67 82 98 49 62 104 106 133 106 10 0 38 -5 62 -11z m536
-188 c91 -47 159 -134 198 -252 15 -47 34 -63 101 -86 77 -26 98 -39 115 -73
19 -37 18 -67 -3 -108 -22 -41 -62 -62 -116 -62 -54 0 -87 33 -112 112 -20 65
-49 96 -114 123 -175 72 -259 136 -280 214 -18 69 4 130 55 152 32 14 109 4
156 -20z m-270 -332 c48 -16 102 -70 167 -169 31 -47 75 -105 97 -130 105
-118 175 -223 175 -264 0 -40 -154 -72 -209 -43 -24 12 -119 123 -120 140 -2
20 -150 187 -176 198 -62 28 -100 56 -106 79 -12 42 -9 124 5 149 26 48 95 64
167 40z m-159 -305 c25 -90 23 -209 -4 -264 -27 -53 -59 -72 -111 -66 -82 9
-111 71 -105 224 3 98 4 103 33 132 33 33 100 51 145 40 20 -5 28 -17 42 -66z
m-347 -424 c45 -42 41 -134 -8 -187 -21 -24 -113 -63 -147 -63 -36 0 -72 42
-77 93 -9 75 28 144 92 173 42 20 111 12 140 -16z"/>
<path d="M636 4569 c-29 -23 -71 -106 -81 -162 -11 -57 39 -185 89 -226 9 -7
16 -18 16 -23 0 -5 19 -31 43 -59 42 -49 73 -65 63 -31 -25 77 -58 278 -63
377 -7 148 -16 164 -67 124z"/>
<path d="M9852 4405 c-70 -65 -107 -132 -97 -174 4 -14 18 -38 33 -53 21 -23
34 -28 74 -28 31 0 50 5 54 13 2 7 3 78 2 157 l-3 144 -63 -59z"/>
<path d="M7882 3233 c-22 -9 -52 -81 -52 -126 0 -48 49 -200 71 -223 13 -12
26 -10 97 11 115 36 115 40 14 208 -78 128 -95 145 -130 130z"/>
<path d="M6575 273 c-79 -20 -165 -122 -165 -195 0 -78 0 -78 124 -78 l112 0
27 83 c31 94 33 118 11 152 -13 20 -64 47 -83 44 -3 -1 -15 -4 -26 -6z"/>
<path d="M7764 73 c-3 -16 -9 -38 -14 -50 -10 -23 -9 -23 87 -23 96 0 96 0 78
20 -21 23 -116 80 -134 80 -6 0 -13 -12 -17 -27z"/>
<path d="M7020 43 l-75 -38 123 -3 c195 -4 370 2 347 12 -11 5 -27 14 -35 21
-20 16 -106 32 -205 40 -78 6 -82 5 -155 -32z"/>
<path d="M8428 25 c-16 -9 -28 -18 -28 -20 0 -3 30 -5 67 -5 59 0 65 2 53 14
-23 23 -62 27 -92 11z"/>
</g>
</svg>
